<svg xmlns="http://www.w3.org/2000/svg" viewBox="0 0 56 56">
  <rect width="56" height="56" rx="13" fill="#1A56DB"/>
  <defs>
    <clipPath id="fv-bot"><polygon points="20,6 48,6 48,44 20,44 20,29 41,23 20,23"/></clipPath>
    <clipPath id="fv-top"><polygon points="20,6 48,6 48,23 41,23 20,29 20,6"/></clipPath>
    <clipPath id="fv-lin"><polygon points="20,29 48,23 48,44 20,44"/></clipPath>
  </defs>
  <rect x="7" y="14" width="26" height="32" rx="5" fill="rgba(255,255,255,0.15)"/>
  <rect x="13" y="10" width="26" height="32" rx="5" fill="rgba(255,255,255,0.22)"/>
  <rect x="20" y="6" width="28" height="38" rx="5" fill="rgba(255,255,255,0.9)" clip-path="url(#fv-bot)"/>
  <rect x="20" y="6" width="28" height="38" rx="5" fill="rgba(255,255,255,0.9)" clip-path="url(#fv-top)"/>
  <line x1="26" y1="31" x2="43" y2="31" stroke="rgba(26,86,219,0.3)" stroke-width="2" stroke-linecap="round" clip-path="url(#fv-lin)"/>
  <line x1="26" y1="36" x2="38" y2="36" stroke="rgba(26,86,219,0.3)" stroke-width="2" stroke-linecap="round" clip-path="url(#fv-lin)"/>
  <polygon points="37,3 25,27 34,27 22,53 45,22 36,22" fill="#1A56DB"/>
</svg>
